<?xml version="1.0" encoding="UTF-8" standalone="no"?>
<!-- Created with Inkscape (http://www.inkscape.org/) -->

<svg
   xmlns:osb="http://www.openswatchbook.org/uri/2009/osb"
   xmlns:dc="http://purl.org/dc/elements/1.1/"
   xmlns:cc="http://creativecommons.org/ns#"
   xmlns:rdf="http://www.w3.org/1999/02/22-rdf-syntax-ns#"
   xmlns:svg="http://www.w3.org/2000/svg"
   xmlns="http://www.w3.org/2000/svg"
   xmlns:xlink="http://www.w3.org/1999/xlink"
   xmlns:sodipodi="http://sodipodi.sourceforge.net/DTD/sodipodi-0.dtd"
   xmlns:inkscape="http://www.inkscape.org/namespaces/inkscape"
   width="2125.9841"
   height="1062.9921"
   id="svg2"
   version="1.1"
   inkscape:version="0.48.2 r9819"
   sodipodi:docname="goldengate.svg">
  <defs
     id="defs4">
    <linearGradient
       id="linearGradient5218"
       osb:paint="solid">
      <stop
         style="stop-color:#000000;stop-opacity:1;"
         offset="0"
         id="stop5220" />
    </linearGradient>
  </defs>
  <sodipodi:namedview
     id="base"
     pagecolor="#ffffff"
     bordercolor="#666666"
     borderopacity="1.0"
     inkscape:pageopacity="0.0"
     inkscape:pageshadow="2"
     inkscape:zoom="0.70710678"
     inkscape:cx="394.94966"
     inkscape:cy="332.78308"
     inkscape:document-units="mm"
     inkscape:current-layer="layer1"
     showgrid="true"
     units="mm"
     showguides="false"
     inkscape:guide-bbox="true"
     inkscape:window-width="1430"
     inkscape:window-height="772"
     inkscape:window-x="0"
     inkscape:window-y="0"
     inkscape:window-maximized="0"
     inkscape:snap-global="true"
     objecttolerance="10000"
     inkscape:snap-to-guides="true"
     inkscape:snap-grids="true">
    <inkscape:grid
       type="xygrid"
       id="grid3772"
       empspacing="5"
       visible="true"
       enabled="true"
       snapvisiblegridlinesonly="true"
       units="mm"
       spacingx="1mm"
       spacingy="1mm"
       dotted="true" />
    <sodipodi:guide
       position="0,0"
       orientation="0,2125.9841"
       id="guide5224" />
    <sodipodi:guide
       position="2125.9841,0"
       orientation="-1062.9921,0"
       id="guide5226" />
    <sodipodi:guide
       position="2125.9841,1062.9921"
       orientation="0,-2125.9841"
       id="guide5228" />
    <sodipodi:guide
       position="0,1062.9921"
       orientation="1062.9921,0"
       id="guide5230" />
  </sodipodi:namedview>
  <metadata
     id="metadata7">
    <rdf:RDF>
      <cc:Work
         rdf:about="">
        <dc:format>image/svg+xml</dc:format>
        <dc:type
           rdf:resource="http://purl.org/dc/dcmitype/StillImage" />
        <dc:title />
      </cc:Work>
    </rdf:RDF>
  </metadata>
  <g
     inkscape:label="Layer 1"
     inkscape:groupmode="layer"
     id="layer1"
     transform="translate(0,10.62991)"
     style="display:inline">
    <g
       id="g3094"
       transform="translate(-931.88978,-21.25984)"
       style="stroke-width:0.99921260000000001;stroke-miterlimit:4;stroke-dasharray:none;stroke:#ff0000;stroke-opacity:1">
      <path
         sodipodi:nodetypes="ccccccccccccccccccccccccccc"
         inkscape:connector-curvature="0"
         id="path5240"
         d="m 992.12598,258.66137 7.08662,0 0,-10.62992 7.0866,0 0,-7.08662 85.0394,0 0,7.08662 7.0866,0 0,10.62992 7.0866,0 0,21.25984 7.0866,0 0,35.43307 21.2599,0 0,-56.69291 -14.1733,0 0,-226.771656 -14.1732,14.173228 -113.38581,0 -14.17323,-14.173228 0,226.771656 -14.17323,0 0,56.69291 21.25984,0 0,-35.43307 7.08661,0 z"
         style="fill:none;stroke:#ff0000;stroke-width:0.99921260000000001;stroke-linecap:butt;stroke-linejoin:miter;stroke-opacity:1;stroke-miterlimit:4;stroke-dasharray:none" />
      <path
         sodipodi:nodetypes="ccccccccccccccccccccc"
         inkscape:connector-curvature="0"
         d="m 1098.4252,60.236171 0,7.086614 3.5433,0 0,10.629921 3.5434,0 -10e-5,46.062994 -3.5433,-10e-6 0,3.54331 -3.5433,0 0,3.54331 -99.2126,0 0,-3.54331 -3.54331,0 0,-3.54331 -3.54331,0 10e-6,-46.062984 3.54331,0 -10e-6,-10.629921 3.54331,0 -4e-5,-7.086614 99.21264,0"
         style="fill:none;stroke:#ff00ff;stroke-width:0.99921260000000001;stroke-linecap:butt;stroke-linejoin:miter;stroke-opacity:1;stroke-miterlimit:4;stroke-dasharray:none"
         id="path5272" />
      <use
         height="1062.9921"
         width="2125.9841"
         transform="translate(-1.574803e-6,92.12598)"
         id="use5378"
         xlink:href="#path5272"
         y="0"
         x="0"
         style="stroke-width:0.99921260000000001;stroke-miterlimit:4;stroke-dasharray:none;stroke:#ff0000;stroke-opacity:1" />
    </g>
    <g
       id="g3104"
       transform="matrix(0,1,-1,0,2009.0551,-60.236271)"
       style="stroke-width:0.99921260000000001;stroke-miterlimit:4;stroke-dasharray:none;stroke:#ff0000;stroke-opacity:1">
      <path
         transform="translate(0,-10.62991)"
         sodipodi:nodetypes="ccccccccccccccccccccccccccccc"
         inkscape:connector-curvature="0"
         id="rect2991"
         d="m 882.25,868.09375 -35.39961,0.0164 0,14.17322 -70.88164,-0.002 0,-14.1875 -265.73253,0.0163 0,14.17322 -70.86614,0 0,-14.17322 -265.74803,-2e-5 0,14.17322 -70.86614,3e-5 0,-14.17322 -35.443405,-0.0163 -0.0026,-141.71586 35.446005,-1.2e-4 0,-14.17323 70.86614,-5e-5 0,14.17323 265.74803,4e-5 0,-14.17323 70.86614,0 0,14.17323 265.71701,8e-5 0,-14.1875 70.89716,0.0141 0,14.17323 35.40858,1.5e-4 z"
         style="fill:none;stroke:#ff0000;stroke-width:0.99921260000000001;stroke-linecap:butt;stroke-linejoin:miter;stroke-miterlimit:4;stroke-opacity:1;stroke-dasharray:none" />
      <path
         sodipodi:nodetypes="ccccc"
         inkscape:connector-curvature="0"
         id="rect3918"
         d="m 290.55118,744.09444 -28.34646,0 0,85.03937 28.34646,0 z"
         style="fill:none;stroke:#ff00ff;stroke-width:0.99921260000000001;stroke-miterlimit:4;stroke-opacity:1;stroke-dasharray:none" />
      <path
         style="fill:none;stroke:#ff00ff;stroke-width:0.99921260000000001;stroke-miterlimit:4;stroke-opacity:1;stroke-dasharray:none"
         d="m 687.40157,744.09444 -28.34645,0 0,85.03937 28.34645,0 z"
         id="path4062"
         inkscape:connector-curvature="0"
         sodipodi:nodetypes="ccccc" />
    </g>
    <path
       sodipodi:nodetypes="ccccccccc"
       inkscape:connector-curvature="0"
       id="path4070"
       d="m 549.2126,131.10231 0,14.17323 -14.17323,0 0,28.34646 226.77163,0 0,-28.34646 -14.1732,0 0,-14.33071 z"
       style="fill:none;stroke:#ff0000;stroke-width:0.99921260000000001;stroke-linecap:butt;stroke-linejoin:miter;stroke-opacity:1;stroke-miterlimit:4;stroke-dasharray:none" />
    <g
       id="g3099"
       transform="translate(49.606325,317.81102)"
       style="stroke-width:0.99921260000000001;stroke-miterlimit:4;stroke-dasharray:none;stroke:#ff0000;stroke-opacity:1">
      <path
         inkscape:connector-curvature="0"
         id="path3897"
         transform="translate(0,-10.62991)"
         d="m 1007.2188,535.03125 41.5937,26 41.5937,-26 -83.1874,0 z m -15.0938,9.4375 0,52 41.5938,-26 -41.5938,-26 z m 113.375,0 -41.5938,26 41.5938,26 0,-52 z m -56.6875,35.4375 -41.5937,26 83.1874,0 -41.5937,-26 z"
         style="fill:none;stroke:#ff00ff;stroke-width:0.99921260000000001;stroke-linecap:butt;stroke-linejoin:miter;stroke-opacity:1;stroke-miterlimit:4;stroke-dasharray:none" />
      <path
         inkscape:connector-curvature="0"
         style="fill:none;stroke:#ff00ff;stroke-width:0.99921260000000001;stroke-linecap:butt;stroke-linejoin:miter;stroke-opacity:1;stroke-miterlimit:4;stroke-dasharray:none"
         d="m 1007.2851,609.05425 41.5937,26 41.5937,-26 -83.1874,0 z m -15.0938,9.4375 0,52 41.5938,-26 -41.5938,-26 z m 113.375,0 -41.5938,26 41.5938,26 0,-52 z m -56.6875,35.4375 -41.5937,26 83.1874,0 -41.5937,-26 z"
         id="path3910" />
      <path
         sodipodi:nodetypes="ccccccccccccccccccccc"
         transform="translate(0,-10.62991)"
         inkscape:connector-curvature="0"
         id="path4111"
         d="m 977.95276,520.86613 28.34644,0 0,-14.17323 85.0394,0 0,14.17323 28.3464,0 0,177.16531 14.1733,0 -0.1083,-7.08657 14.2815,0 0,14.17323 14.1732,0 0,28.34646 -226.77163,0 0,-28.34646 14.17323,0 0,-14.17323 14.1437,0 0.0295,7.08657 14.17323,0 z"
         style="fill:none;stroke:#ff0000;stroke-width:0.99921260000000001;stroke-linecap:butt;stroke-linejoin:miter;stroke-opacity:1;stroke-miterlimit:4;stroke-dasharray:none" />
    </g>
    <g
       id="g3073"
       transform="translate(0,340)"
       style="stroke-width:0.99921260000000001;stroke-miterlimit:4;stroke-dasharray:none;stroke:#ff0000;stroke-opacity:1">
      <path
         sodipodi:nodetypes="cc"
         inkscape:connector-curvature="0"
         id="path4200"
         d="M 67.322835,457.08656 C 198.4252,382.67712 233.9037,223.18285 269.29134,42.519636"
         style="fill:none;stroke:#ff0000;stroke-width:0.99921260000000001;stroke-linecap:butt;stroke-linejoin:miter;stroke-miterlimit:4;stroke-opacity:1;stroke-dasharray:none" />
      <path
         sodipodi:nodetypes="ccccc"
         inkscape:connector-curvature="0"
         id="path3045"
         d="m 230.31496,265.74798 c -4.36883,12.5005 -9.06948,23.89514 -14.17323,35.43307 l -0.10665,155.90639 14.26358,9e-5 c 0,0 0.0153,-187.8011 0.0163,-191.33955 z"
         style="fill:none;stroke:#ff00ff;stroke-width:0.99921260000000001;stroke-linecap:butt;stroke-linejoin:miter;stroke-opacity:1;stroke-miterlimit:4;stroke-dasharray:none" />
      <path
         sodipodi:nodetypes="ccccc"
         inkscape:connector-curvature="0"
         id="path3051"
         d="m 187.79528,357.87397 c 0,0 0.0516,98.08958 0.11281,99.24556 l 14.06995,-0.0322 -0.01,-124.01651 c -7.08661,14.17323 -7.92779,16.30961 -14.17322,24.80315 z"
         style="fill:none;stroke:#ff00ff;stroke-width:0.99921260000000001;stroke-linecap:butt;stroke-linejoin:miter;stroke-opacity:1;stroke-miterlimit:4;stroke-dasharray:none" />
      <path
         sodipodi:nodetypes="ccccc"
         inkscape:connector-curvature="0"
         id="path3055"
         d="m 173.62205,382.67712 c -4.45052,5.26402 -9.22927,12.5943 -14.17323,17.71653 l 0.0482,56.69344 14.21196,9e-5 z"
         style="fill:none;stroke:#ff00ff;stroke-width:0.99921260000000001;stroke-linecap:butt;stroke-linejoin:miter;stroke-opacity:1;stroke-miterlimit:4;stroke-dasharray:none" />
      <path
         sodipodi:nodetypes="cccccccccccccccc"
         inkscape:connector-curvature="0"
         id="path3061"
         d="m 117.06567,442.74296 c -6.67986,4.79901 -13.8489,9.63395 -21.396699,14.34388 l 21.327769,-5.5e-4 z m 14.00748,14.34395 0.0292,-28.3468 c 4.99482,-4.06011 9.65829,-9.94732 14.17323,-14.17323 l -0.0938,42.52012 z m 127.58278,0.002 0,-233.875 7.09375,-7.09375 -0.002,-77.93123 c -6.87346,33.1772 -13.62405,57.17865 -21.25984,85.03937 l -0.23593,233.85938 z"
         style="fill:none;stroke:#ff00d4;stroke-width:0.99921260000000001;stroke-linecap:butt;stroke-linejoin:miter;stroke-opacity:1;stroke-miterlimit:4;stroke-dasharray:none" />
      <path
         sodipodi:nodetypes="cccccccccc"
         inkscape:connector-curvature="0"
         id="path3869"
         d="m 308.26772,226.7716 0.0112,230.3159 -14.18519,9.5e-4 0,-233.875 -7.09373,-7.09336 0.008,-77.93116 c 7.08655,38.97638 10.62987,53.1496 21.25979,88.58267 M 283.46875,42.49509 276.375,31.87009 269.29134,42.519636"
         style="fill:none;stroke:#ff00ff;stroke-width:0.99921260000000001;stroke-linecap:butt;stroke-linejoin:miter;stroke-opacity:1;stroke-miterlimit:4;stroke-dasharray:none" />
      <path
         sodipodi:nodetypes="cccccccccccccccccccccccccccccccccccccccccccccccccccccccccccccccccccccccccscc"
         inkscape:connector-curvature="0"
         id="path4169"
         d="m 67.3125,457.08884 0,53.15625 0.03125,0 35.41216,-0.009 0,-14.17323 70.86614,-3.5e-4 0,14.17323 77.95767,0.0562 0,38.9375 3.53125,0 0,7.09375 3.53125,0 0,7.09375 3.5625,-0.0312 0,124.01579 28.34646,0 -0.26919,-123.98459 3.8125,-0.0312 0,-7.09375 3.53125,0 0,-7.09375 3.5625,0 -0.25,-38.90625 138.43184,-0.0562 0,-14.17323 c 23.62205,8e-5 47.24409,1.7e-4 70.86614,2.5e-4 l 0,14.17323 138.18898,8e-5 0,38.97638 3.5625,0 0,7.09375 3.53125,0 0,7.09375 3.8125,0.0312 -0.27633,123.97033 28.34645,0 -0.0192,-124.047 3.5625,0.0312 0,-7.09375 3.53125,0 0,-7.09375 3.53125,0 0,-38.9375 77.97687,-0.0248 0,-14.17323 70.86614,10e-5 0,14.17323 35.41216,0.009 0.0312,0 0,-53.15625 m -432.3563,-55.51286 0.0369,55.51128 -14.02351,-10e-6 0.0634,-59.11708 z m -28.28394,-9.14911 -0.0182,64.66039 -14.16955,0 0.3895,-72.35282 z m -27.97147,-17.94735 -0.3859,82.60774 -14.09653,0 0.1842,-95.71846 z m -28.53396,-29.76476 -0.264,112.3725 -14.09635,9.4e-4 -3.5e-4,-0.002 0.1875,-132.2372 z M 336.4892,298.19029 c -10e-6,3.54342 0.12497,158.89627 0.12497,158.89627 l -14.16552,8.3e-4 0.242,-189.26767 z"
         style="fill:none;stroke:#ff0000;stroke-width:0.99921260000000001;stroke-miterlimit:4;stroke-opacity:1;stroke-dasharray:none" />
      <path
         style="fill:none;stroke:#ff0000;stroke-width:0.99921260000000001;stroke-linecap:butt;stroke-linejoin:miter;stroke-miterlimit:4;stroke-opacity:1;stroke-dasharray:none"
         d="M 882.28346,457.08681 C 751.1811,382.67737 715.7026,223.1831 680.31496,42.519887"
         id="path3973"
         inkscape:connector-curvature="0"
         sodipodi:nodetypes="cc" />
      <path
         style="fill:none;stroke:#ff00ff;stroke-width:0.99921260000000001;stroke-linecap:butt;stroke-linejoin:miter;stroke-opacity:1;stroke-miterlimit:4;stroke-dasharray:none"
         d="m 719.29134,265.74823 c 4.36883,12.5005 9.06948,23.89514 14.17323,35.43307 l 0.10665,155.90639 -14.26358,9e-5 c 0,0 -0.0153,-187.8011 -0.0163,-191.33955 z"
         id="path3975"
         inkscape:connector-curvature="0"
         sodipodi:nodetypes="ccccc" />
      <path
         style="fill:none;stroke:#ff00ff;stroke-width:0.99921260000000001;stroke-linecap:butt;stroke-linejoin:miter;stroke-opacity:1;stroke-miterlimit:4;stroke-dasharray:none"
         d="m 761.81102,357.87422 c 0,0 -0.0516,98.08958 -0.11281,99.24556 l -14.06995,-0.0322 0.01,-124.01651 c 7.08661,14.17323 7.92779,16.30961 14.17322,24.80315 z"
         id="path3977"
         inkscape:connector-curvature="0"
         sodipodi:nodetypes="ccccc" />
      <path
         style="fill:none;stroke:#ff00ff;stroke-width:0.99921260000000001;stroke-linecap:butt;stroke-linejoin:miter;stroke-opacity:1;stroke-miterlimit:4;stroke-dasharray:none"
         d="m 775.98425,382.67737 c 4.45052,5.26402 9.22927,12.5943 14.17323,17.71653 l -0.0482,56.69344 -14.21196,9e-5 z"
         id="path3979"
         inkscape:connector-curvature="0"
         sodipodi:nodetypes="ccccc" />
      <path
         style="fill:none;stroke:#ff00ff;stroke-width:0.99921260000000001;stroke-linecap:butt;stroke-linejoin:miter;stroke-opacity:1;stroke-miterlimit:4;stroke-dasharray:none"
         d="m 832.54063,442.74321 c 6.67986,4.79901 13.8489,9.63395 21.3967,14.34388 l -21.32777,-5.5e-4 z m -14.00748,14.34395 -0.0292,-28.3468 c -4.99482,-4.06011 -9.65829,-9.94732 -14.17323,-14.17323 l 0.0938,42.52012 z m -127.58278,0.002 0,-233.875 -7.09375,-7.09375 0.002,-77.93123 c 6.87346,33.1772 13.62405,57.17865 21.25984,85.03937 l 0.23593,233.85938 z"
         id="path3981"
         inkscape:connector-curvature="0"
         sodipodi:nodetypes="cccccccccccccccc" />
      <path
         style="fill:none;stroke:#ff0000;stroke-width:0.99921260000000001;stroke-linecap:butt;stroke-linejoin:miter;stroke-miterlimit:4;stroke-opacity:1;stroke-dasharray:none"
         d="M 666.14173,42.519887 C 630.70866,255.11831 577.55906,386.22067 474.80315,386.22054 372.04724,386.22042 318.89764,255.11806 283.46457,42.519636"
         id="path3983"
         inkscape:connector-curvature="0"
         sodipodi:nodetypes="ccc" />
      <path
         style="fill:none;stroke:#ff00ff;stroke-width:0.99921260000000001;stroke-linecap:butt;stroke-linejoin:miter;stroke-opacity:1;stroke-miterlimit:4;stroke-dasharray:none"
         d="m 641.33858,226.77185 -0.0112,230.3159 14.18519,9.5e-4 0,-233.875 7.09373,-7.09336 -0.008,-77.93116 c -7.08655,38.97638 -10.62987,53.1496 -21.25979,88.58267 m 24.79904,-184.276509 7.09375,-10.625 7.08366,10.649546"
         id="path3985"
         inkscape:connector-curvature="0"
         sodipodi:nodetypes="cccccccccc" />
      <path
         style="fill:none;stroke:#ff00ff;stroke-width:0.99921260000000001;stroke-miterlimit:4;stroke-opacity:1;stroke-dasharray:none"
         d="m 485.43307,403.93721 0.1023,53.15055 c -7.15481,10e-4 -14.30963,4.6e-4 -21.46444,-2.5e-4 0,0 0.1023,-47.8164 0.1023,-53.15055 10.54153,1.23744 10.5493,1.23744 21.25984,2.5e-4 z m 14.23573,-2.36073 -0.0369,55.51128 14.02351,-10e-6 -0.0634,-59.11708 z m 28.28394,-9.14911 0.0182,64.66039 14.16955,0 -0.3895,-72.35282 z m 27.97147,-17.94735 0.3859,82.60774 14.09653,0 -0.1842,-95.71846 z m 28.53396,-29.76476 0.264,112.3725 14.09635,9.4e-4 3.5e-4,-0.002 -0.1875,-132.2372 z m 28.65893,-46.52472 c 10e-6,3.54342 -0.12497,158.89627 -0.12497,158.89627 l 14.16552,8.3e-4 -0.242,-189.26767 z"
         id="path3987"
         inkscape:connector-curvature="0"
         sodipodi:nodetypes="ccccccccccccccccccccccccccccscc" />
      <path
         sodipodi:nodetypes="ccccc"
         inkscape:connector-curvature="0"
         id="path4067"
         d="m 666.14173,315.35428 0,-56.69291 14.17323,0 0,56.69291 z"
         style="fill:none;stroke:#ff00ff;stroke-width:0.99921260000000001;stroke-linecap:butt;stroke-linejoin:miter;stroke-opacity:1;stroke-miterlimit:4;stroke-dasharray:none" />
      <path
         style="fill:none;stroke:#ff00ff;stroke-width:0.99921260000000001;stroke-linecap:butt;stroke-linejoin:miter;stroke-opacity:1;stroke-miterlimit:4;stroke-dasharray:none"
         d="m 269.29134,315.35428 0,-56.69291 14.17323,0 0,56.69291 z"
         id="path4077"
         inkscape:connector-curvature="0"
         sodipodi:nodetypes="ccccc" />
    </g>
    <g
       id="g3109"
       transform="matrix(1,0,0,-1,180,719.27123)"
       style="stroke-width:0.99921260000000001;stroke-miterlimit:4;stroke-dasharray:none;stroke:#ff0000;stroke-opacity:1">
      <path
         style="fill:none;stroke:#ff0000;stroke-width:0.99921260000000001;stroke-linecap:butt;stroke-linejoin:miter;stroke-miterlimit:4;stroke-opacity:1;stroke-dasharray:none"
         d="M 67.322835,457.08656 C 198.4252,382.67712 233.9037,223.18285 269.29134,42.519636"
         id="path3111"
         inkscape:connector-curvature="0"
         sodipodi:nodetypes="cc" />
      <path
         style="fill:none;stroke:#ff00ff;stroke-width:0.99921260000000001;stroke-linecap:butt;stroke-linejoin:miter;stroke-opacity:1;stroke-miterlimit:4;stroke-dasharray:none"
         d="m 230.31496,265.74798 c -4.36883,12.5005 -9.06948,23.89514 -14.17323,35.43307 l -0.10665,155.90639 14.26358,9e-5 c 0,0 0.0153,-187.8011 0.0163,-191.33955 z"
         id="path3113"
         inkscape:connector-curvature="0"
         sodipodi:nodetypes="ccccc" />
      <path
         style="fill:none;stroke:#ff00ff;stroke-width:0.99921260000000001;stroke-linecap:butt;stroke-linejoin:miter;stroke-opacity:1;stroke-miterlimit:4;stroke-dasharray:none"
         d="m 187.79528,357.87397 c 0,0 0.0516,98.08958 0.11281,99.24556 l 14.06995,-0.0322 -0.01,-124.01651 c -7.08661,14.17323 -7.92779,16.30961 -14.17322,24.80315 z"
         id="path3115"
         inkscape:connector-curvature="0"
         sodipodi:nodetypes="ccccc" />
      <path
         style="fill:none;stroke:#ff00ff;stroke-width:0.99921260000000001;stroke-linecap:butt;stroke-linejoin:miter;stroke-opacity:1;stroke-miterlimit:4;stroke-dasharray:none"
         d="m 173.62205,382.67712 c -4.45052,5.26402 -9.22927,12.5943 -14.17323,17.71653 l 0.0482,56.69344 14.21196,9e-5 z"
         id="path3117"
         inkscape:connector-curvature="0"
         sodipodi:nodetypes="ccccc" />
      <path
         style="fill:none;stroke:#ff00ff;stroke-width:0.99921260000000001;stroke-linecap:butt;stroke-linejoin:miter;stroke-opacity:1;stroke-miterlimit:4;stroke-dasharray:none"
         d="m 117.06567,442.74296 c -6.67986,4.79901 -13.8489,9.63395 -21.396699,14.34388 l 21.327769,-5.5e-4 z m 14.00748,14.34395 0.0292,-28.3468 c 4.99482,-4.06011 9.65829,-9.94732 14.17323,-14.17323 l -0.0938,42.52012 z m 127.58278,0.002 0,-233.875 7.09375,-7.09375 -0.002,-77.93123 c -6.87346,33.1772 -13.62405,57.17865 -21.25984,85.03937 l -0.23593,233.85938 z"
         id="path3119"
         inkscape:connector-curvature="0"
         sodipodi:nodetypes="cccccccccccccccc" />
      <path
         style="fill:none;stroke:#ff00ff;stroke-width:0.99921260000000001;stroke-linecap:butt;stroke-linejoin:miter;stroke-opacity:1;stroke-miterlimit:4;stroke-dasharray:none"
         d="m 308.26772,226.7716 0.0112,230.3159 -14.18519,9.5e-4 0,-233.875 -7.09373,-7.09336 0.008,-77.93116 c 7.08655,38.97638 10.62987,53.1496 21.25979,88.58267 M 283.46875,42.49509 276.375,31.87009 269.29134,42.519636"
         id="path3121"
         inkscape:connector-curvature="0"
         sodipodi:nodetypes="cccccccccc" />
      <path
         style="fill:none;stroke:#ff0000;stroke-width:0.99921260000000001;stroke-miterlimit:4;stroke-opacity:1;stroke-dasharray:none"
         d="m 67.3125,457.08884 0,53.15625 0.03125,0 35.41216,-0.009 0,-14.17323 70.86614,-3.5e-4 0,14.17323 77.95767,0.0562 0,38.9375 3.53125,0 0,7.09375 3.53125,0 0,7.09375 3.5625,-0.0312 0,124.01579 28.34646,0 -0.26919,-123.98459 3.8125,-0.0312 0,-7.09375 3.53125,0 0,-7.09375 3.5625,0 -0.25,-38.90625 138.43184,-0.0562 0,-14.17323 c 23.62205,8e-5 47.24409,1.7e-4 70.86614,2.5e-4 l 0,14.17323 138.18898,8e-5 0,38.97638 3.5625,0 0,7.09375 3.53125,0 0,7.09375 3.8125,0.0312 -0.27633,123.97033 28.34645,0 -0.0192,-124.047 3.5625,0.0312 0,-7.09375 3.53125,0 0,-7.09375 3.53125,0 0,-38.9375 77.97687,-0.0248 0,-14.17323 70.86614,10e-5 0,14.17323 35.41216,0.009 0.0312,0 0,-53.15625 m -432.3563,-55.51286 0.0369,55.51128 -14.02351,-10e-6 0.0634,-59.11708 z m -28.28394,-9.14911 -0.0182,64.66039 -14.16955,0 0.3895,-72.35282 z m -27.97147,-17.94735 -0.3859,82.60774 -14.09653,0 0.1842,-95.71846 z m -28.53396,-29.76476 -0.264,112.3725 -14.09635,9.4e-4 -3.5e-4,-0.002 0.1875,-132.2372 z M 336.4892,298.19029 c -10e-6,3.54342 0.12497,158.89627 0.12497,158.89627 l -14.16552,8.3e-4 0.242,-189.26767 z"
         id="path3123"
         inkscape:connector-curvature="0"
         sodipodi:nodetypes="cccccccccccccccccccccccccccccccccccccccccccccccccccccccccccccccccccccccccscc" />
      <path
         sodipodi:nodetypes="cc"
         inkscape:connector-curvature="0"
         id="path3125"
         d="M 882.28346,457.08681 C 751.1811,382.67737 715.7026,223.1831 680.31496,42.519887"
         style="fill:none;stroke:#ff0000;stroke-width:0.99921260000000001;stroke-linecap:butt;stroke-linejoin:miter;stroke-miterlimit:4;stroke-opacity:1;stroke-dasharray:none" />
      <path
         sodipodi:nodetypes="ccccc"
         inkscape:connector-curvature="0"
         id="path3127"
         d="m 719.29134,265.74823 c 4.36883,12.5005 9.06948,23.89514 14.17323,35.43307 l 0.10665,155.90639 -14.26358,9e-5 c 0,0 -0.0153,-187.8011 -0.0163,-191.33955 z"
         style="fill:none;stroke:#ff00ff;stroke-width:0.99921260000000001;stroke-linecap:butt;stroke-linejoin:miter;stroke-opacity:1;stroke-miterlimit:4;stroke-dasharray:none" />
      <path
         sodipodi:nodetypes="ccccc"
         inkscape:connector-curvature="0"
         id="path3129"
         d="m 761.81102,357.87422 c 0,0 -0.0516,98.08958 -0.11281,99.24556 l -14.06995,-0.0322 0.01,-124.01651 c 7.08661,14.17323 7.92779,16.30961 14.17322,24.80315 z"
         style="fill:none;stroke:#ff00ff;stroke-width:0.99921260000000001;stroke-linecap:butt;stroke-linejoin:miter;stroke-opacity:1;stroke-miterlimit:4;stroke-dasharray:none" />
      <path
         sodipodi:nodetypes="ccccc"
         inkscape:connector-curvature="0"
         id="path3131"
         d="m 775.98425,382.67737 c 4.45052,5.26402 9.22927,12.5943 14.17323,17.71653 l -0.0482,56.69344 -14.21196,9e-5 z"
         style="fill:none;stroke:#ff00ff;stroke-width:0.99921260000000001;stroke-linecap:butt;stroke-linejoin:miter;stroke-opacity:1;stroke-miterlimit:4;stroke-dasharray:none" />
      <path
         sodipodi:nodetypes="cccccccccccccccc"
         inkscape:connector-curvature="0"
         id="path3133"
         d="m 832.54063,442.74321 c 6.67986,4.79901 13.8489,9.63395 21.3967,14.34388 l -21.32777,-5.5e-4 z m -14.00748,14.34395 -0.0292,-28.3468 c -4.99482,-4.06011 -9.65829,-9.94732 -14.17323,-14.17323 l 0.0938,42.52012 z m -127.58278,0.002 0,-233.875 -7.09375,-7.09375 0.002,-77.93123 c 6.87346,33.1772 13.62405,57.17865 21.25984,85.03937 l 0.23593,233.85938 z"
         style="fill:none;stroke:#ff00ff;stroke-width:0.99921260000000001;stroke-linecap:butt;stroke-linejoin:miter;stroke-opacity:1;stroke-miterlimit:4;stroke-dasharray:none" />
      <path
         sodipodi:nodetypes="ccc"
         inkscape:connector-curvature="0"
         id="path3135"
         d="M 666.14173,42.519887 C 630.70866,255.11831 577.55906,386.22067 474.80315,386.22054 372.04724,386.22042 318.89764,255.11806 283.46457,42.519636"
         style="fill:none;stroke:#ff0000;stroke-width:0.99921260000000001;stroke-linecap:butt;stroke-linejoin:miter;stroke-miterlimit:4;stroke-opacity:1;stroke-dasharray:none" />
      <path
         sodipodi:nodetypes="cccccccccc"
         inkscape:connector-curvature="0"
         id="path3137"
         d="m 641.33858,226.77185 -0.0112,230.3159 14.18519,9.5e-4 0,-233.875 7.09373,-7.09336 -0.008,-77.93116 c -7.08655,38.97638 -10.62987,53.1496 -21.25979,88.58267 m 24.79904,-184.276509 7.09375,-10.625 7.08366,10.649546"
         style="fill:none;stroke:#ff00ff;stroke-width:0.99921260000000001;stroke-linecap:butt;stroke-linejoin:miter;stroke-opacity:1;stroke-miterlimit:4;stroke-dasharray:none" />
      <path
         sodipodi:nodetypes="ccccccccccccccccccccccccccccscc"
         inkscape:connector-curvature="0"
         id="path3139"
         d="m 485.43307,403.93721 0.1023,53.15055 c -7.15481,10e-4 -14.30963,4.6e-4 -21.46444,-2.5e-4 0,0 0.1023,-47.8164 0.1023,-53.15055 10.54153,1.23744 10.5493,1.23744 21.25984,2.5e-4 z m 14.23573,-2.36073 -0.0369,55.51128 14.02351,-10e-6 -0.0634,-59.11708 z m 28.28394,-9.14911 0.0182,64.66039 14.16955,0 -0.3895,-72.35282 z m 27.97147,-17.94735 0.3859,82.60774 14.09653,0 -0.1842,-95.71846 z m 28.53396,-29.76476 0.264,112.3725 14.09635,9.4e-4 3.5e-4,-0.002 -0.1875,-132.2372 z m 28.65893,-46.52472 c 10e-6,3.54342 -0.12497,158.89627 -0.12497,158.89627 l 14.16552,8.3e-4 -0.242,-189.26767 z"
         style="fill:none;stroke:#ff0000;stroke-width:0.99921260000000001;stroke-miterlimit:4;stroke-opacity:1;stroke-dasharray:none" />
      <path
         style="fill:none;stroke:#ff00ff;stroke-width:0.99921260000000001;stroke-linecap:butt;stroke-linejoin:miter;stroke-opacity:1;stroke-miterlimit:4;stroke-dasharray:none"
         d="m 666.14173,315.35428 0,-56.69291 14.17323,0 0,56.69291 z"
         id="path3141"
         inkscape:connector-curvature="0"
         sodipodi:nodetypes="ccccc" />
      <path
         sodipodi:nodetypes="ccccc"
         inkscape:connector-curvature="0"
         id="path3143"
         d="m 269.29134,315.35428 0,-56.69291 14.17323,0 0,56.69291 z"
         style="fill:none;stroke:#ff00ff;stroke-width:0.99921260000000001;stroke-linecap:butt;stroke-linejoin:miter;stroke-opacity:1;stroke-miterlimit:4;stroke-dasharray:none" />
    </g>
    <g
       transform="translate(-935.43306,279.92126)"
       id="g3145"
       style="stroke-width:0.99921260000000001;stroke-miterlimit:4;stroke-dasharray:none;stroke:#ff0000;stroke-opacity:1">
      <path
         style="fill:none;stroke:#ff0000;stroke-width:0.99921260000000001;stroke-linecap:butt;stroke-linejoin:miter;stroke-opacity:1;stroke-miterlimit:4;stroke-dasharray:none"
         d="m 992.12598,258.66137 7.08662,0 0,-10.62992 7.0866,0 0,-7.08662 85.0394,0 0,7.08662 7.0866,0 0,10.62992 7.0866,0 0,21.25984 7.0866,0 0,35.43307 21.2599,0 0,-56.69291 -14.1733,0 0,-226.771656 -14.1732,14.173228 -113.38581,0 -14.17323,-14.173228 0,226.771656 -14.17323,0 0,56.69291 21.25984,0 0,-35.43307 7.08661,0 z"
         id="path3147"
         inkscape:connector-curvature="0"
         sodipodi:nodetypes="ccccccccccccccccccccccccccc" />
      <path
         id="path3149"
         style="fill:none;stroke:#ff00ff;stroke-width:0.99921260000000001;stroke-linecap:butt;stroke-linejoin:miter;stroke-opacity:1;stroke-miterlimit:4;stroke-dasharray:none"
         d="m 1098.4252,60.236171 0,7.086614 3.5433,0 0,10.629921 3.5434,0 -10e-5,46.062994 -3.5433,-10e-6 0,3.54331 -3.5433,0 0,3.54331 -99.2126,0 0,-3.54331 -3.54331,0 0,-3.54331 -3.54331,0 10e-6,-46.062984 3.54331,0 -10e-6,-10.629921 3.54331,0 -4e-5,-7.086614 99.21264,0"
         inkscape:connector-curvature="0"
         sodipodi:nodetypes="ccccccccccccccccccccc" />
      <use
         x="0"
         y="0"
         xlink:href="#path5272"
         id="use3151"
         transform="translate(-1.574803e-6,92.12598)"
         width="2125.9841"
         height="1062.9921"
         style="stroke-width:0.99921260000000001;stroke-miterlimit:4;stroke-dasharray:none;stroke:#ff0000;stroke-opacity:1" />
    </g>
    <path
       style="fill:none;stroke:#ff0000;stroke-width:0.99921260000000001;stroke-linecap:butt;stroke-linejoin:miter;stroke-opacity:1;stroke-miterlimit:4;stroke-dasharray:none"
       d="m 368.50394,956.69286 0,14.17323 -14.17323,0 0,28.34646 226.77163,0 0,-28.34646 -14.1732,0 0,-14.33071 z"
       id="path3153"
       inkscape:connector-curvature="0"
       sodipodi:nodetypes="ccccccccc" />
    <path
       sodipodi:nodetypes="ccccccccc"
       inkscape:connector-curvature="0"
       id="path3155"
       d="m 372.04724,892.91334 0,14.17323 -14.17323,0 0,28.34646 226.77163,0 0,-28.34646 -14.1732,0 0,-14.33071 z"
       style="fill:none;stroke:#ff0000;stroke-width:0.99921260000000001;stroke-linecap:butt;stroke-linejoin:miter;stroke-opacity:1;stroke-miterlimit:4;stroke-dasharray:none" />
    <path
       style="fill:none;stroke:#ff0000;stroke-width:0.99921260000000001;stroke-linecap:butt;stroke-linejoin:miter;stroke-opacity:1;stroke-miterlimit:4;stroke-dasharray:none"
       d="m 549.2126,77.952707 0,14.17323 -14.17323,0 0,28.346463 226.77163,0 0,-28.346463 -14.1732,0 0,-14.33071 z"
       id="path3157"
       inkscape:connector-curvature="0"
       sodipodi:nodetypes="ccccccccc" />
    <g
       transform="translate(-39.03628,61.818732)"
       id="g3159"
       style="stroke-width:0.99921260000000001;stroke-miterlimit:4;stroke-dasharray:none;stroke:#ff0000;stroke-opacity:1">
      <path
         style="fill:none;stroke:#ff00ff;stroke-width:0.99921260000000001;stroke-linecap:butt;stroke-linejoin:miter;stroke-opacity:1;stroke-miterlimit:4;stroke-dasharray:none"
         d="m 1007.2188,535.03125 41.5937,26 41.5937,-26 -83.1874,0 z m -15.0938,9.4375 0,52 41.5938,-26 -41.5938,-26 z m 113.375,0 -41.5938,26 41.5938,26 0,-52 z m -56.6875,35.4375 -41.5937,26 83.1874,0 -41.5937,-26 z"
         transform="translate(0,-10.62991)"
         id="path3161"
         inkscape:connector-curvature="0" />
      <path
         id="path3163"
         d="m 1007.2851,609.05425 41.5937,26 41.5937,-26 -83.1874,0 z m -15.0938,9.4375 0,52 41.5938,-26 -41.5938,-26 z m 113.375,0 -41.5938,26 41.5938,26 0,-52 z m -56.6875,35.4375 -41.5937,26 83.1874,0 -41.5937,-26 z"
         style="fill:none;stroke:#ff00ff;stroke-width:0.99921260000000001;stroke-linecap:butt;stroke-linejoin:miter;stroke-opacity:1;stroke-miterlimit:4;stroke-dasharray:none"
         inkscape:connector-curvature="0" />
      <path
         style="fill:none;stroke:#ff0000;stroke-width:0.99921260000000001;stroke-linecap:butt;stroke-linejoin:miter;stroke-opacity:1;stroke-miterlimit:4;stroke-dasharray:none"
         d="m 977.95276,520.86613 28.34644,0 0,-14.17323 85.0394,0 0,14.17323 28.3464,0 0,177.16531 14.1733,0 -0.1083,-7.08657 14.2815,0 0,14.17323 14.1732,0 0,28.34646 -226.77163,0 0,-28.34646 14.17323,0 0,-14.17323 14.1437,0 0.0295,7.08657 14.17323,0 z"
         id="path3165"
         inkscape:connector-curvature="0"
         transform="translate(0,-10.62991)"
         sodipodi:nodetypes="ccccccccccccccccccccc" />
    </g>
    <g
       id="g3167"
       transform="matrix(0,-1,1,0,255.12179,1979.7817)"
       style="stroke-width:0.99921260000000001;stroke-miterlimit:4;stroke-dasharray:none;stroke:#ff0000;stroke-opacity:1">
      <path
         inkscape:connector-curvature="0"
         id="path3169"
         transform="translate(0,-10.62991)"
         d="m 1007.2188,535.03125 41.5937,26 41.5937,-26 -83.1874,0 z m -15.0938,9.4375 0,52 41.5938,-26 -41.5938,-26 z m 113.375,0 -41.5938,26 41.5938,26 0,-52 z m -56.6875,35.4375 -41.5937,26 83.1874,0 -41.5937,-26 z"
         style="fill:none;stroke:#ff00ff;stroke-width:0.99921260000000001;stroke-linecap:butt;stroke-linejoin:miter;stroke-opacity:1;stroke-miterlimit:4;stroke-dasharray:none" />
      <path
         inkscape:connector-curvature="0"
         style="fill:none;stroke:#ff00ff;stroke-width:0.99921260000000001;stroke-linecap:butt;stroke-linejoin:miter;stroke-opacity:1;stroke-miterlimit:4;stroke-dasharray:none"
         d="m 1007.2851,609.05425 41.5937,26 41.5937,-26 -83.1874,0 z m -15.0938,9.4375 0,52 41.5938,-26 -41.5938,-26 z m 113.375,0 -41.5938,26 41.5938,26 0,-52 z m -56.6875,35.4375 -41.5937,26 83.1874,0 -41.5937,-26 z"
         id="path3171" />
      <path
         sodipodi:nodetypes="ccccccccccccccccccccc"
         transform="translate(0,-10.62991)"
         inkscape:connector-curvature="0"
         id="path3173"
         d="m 977.95276,520.86613 28.34644,0 0,-14.17323 85.0394,0 0,14.17323 28.3464,0 0,177.16531 14.1733,0 -0.1083,-7.08657 14.2815,0 0,14.17323 14.1732,0 0,28.34646 -226.77163,0 0,-28.34646 14.17323,0 0,-14.17323 14.1437,0 0.0295,7.08657 14.17323,0 z"
         style="fill:none;stroke:#ff0000;stroke-width:0.99921260000000001;stroke-linecap:butt;stroke-linejoin:miter;stroke-opacity:1;stroke-miterlimit:4;stroke-dasharray:none" />
    </g>
    <g
       id="g3175"
       transform="matrix(0,-1,1,0,388.57061,1165.7362)"
       style="stroke-width:0.99921260000000001;stroke-miterlimit:4;stroke-dasharray:none;stroke:#ff0000;stroke-opacity:1">
      <path
         inkscape:connector-curvature="0"
         id="path3177"
         transform="translate(0,-10.62991)"
         d="m 1007.2188,535.03125 41.5937,26 41.5937,-26 -83.1874,0 z m -15.0938,9.4375 0,52 41.5938,-26 -41.5938,-26 z m 113.375,0 -41.5938,26 41.5938,26 0,-52 z m -56.6875,35.4375 -41.5937,26 83.1874,0 -41.5937,-26 z"
         style="fill:none;stroke:#ff00ff;stroke-width:0.99921260000000001;stroke-linecap:butt;stroke-linejoin:miter;stroke-opacity:1;stroke-miterlimit:4;stroke-dasharray:none" />
      <path
         inkscape:connector-curvature="0"
         style="fill:none;stroke:#ff00ff;stroke-width:0.99921260000000001;stroke-linecap:butt;stroke-linejoin:miter;stroke-opacity:1;stroke-miterlimit:4;stroke-dasharray:none"
         d="m 1007.2851,609.05425 41.5937,26 41.5937,-26 -83.1874,0 z m -15.0938,9.4375 0,52 41.5938,-26 -41.5938,-26 z m 113.375,0 -41.5938,26 41.5938,26 0,-52 z m -56.6875,35.4375 -41.5937,26 83.1874,0 -41.5937,-26 z"
         id="path3179" />
      <path
         sodipodi:nodetypes="ccccccccccccccccccccc"
         transform="translate(0,-10.62991)"
         inkscape:connector-curvature="0"
         id="path3181"
         d="m 977.95276,520.86613 28.34644,0 0,-14.17323 85.0394,0 0,14.17323 28.3464,0 0,177.16531 14.1733,0 -0.1083,-7.08657 14.2815,0 0,14.17323 14.1732,0 0,28.34646 -226.77163,0 0,-28.34646 14.17323,0 0,-14.17323 14.1437,0 0.0295,7.08657 14.17323,0 z"
         style="fill:none;stroke:#ff0000;stroke-width:0.99921260000000001;stroke-linecap:butt;stroke-linejoin:miter;stroke-opacity:1;stroke-miterlimit:4;stroke-dasharray:none" />
    </g>
  </g>
  <g
     inkscape:groupmode="layer"
     id="layer2"
     inkscape:label="guides"
     style="display:none">
    <path
       style="fill:none;stroke:#ff0000;stroke-width:0.99921262;stroke-linecap:butt;stroke-linejoin:miter;stroke-miterlimit:4;stroke-opacity:1;stroke-dasharray:7.99370079, 7.99370079;stroke-dashoffset:0"
       d="m 1158.6614,325.98419 -1034.64565,0"
       id="path4124"
       inkscape:connector-curvature="0"
       sodipodi:nodetypes="cc" />
    <path
       inkscape:connector-curvature="0"
       id="path4128"
       d="m 1158.6614,269.29128 -1034.64565,0"
       style="fill:none;stroke:#ff0000;stroke-width:0.99921262;stroke-linecap:butt;stroke-linejoin:miter;stroke-miterlimit:4;stroke-opacity:1;stroke-dasharray:7.99370079, 7.99370079;stroke-dashoffset:0"
       sodipodi:nodetypes="cc" />
    <path
       style="fill:none;stroke:#f80000;stroke-width:0.99921262;stroke-linecap:butt;stroke-linejoin:miter;stroke-miterlimit:4;stroke-opacity:1;stroke-dasharray:11.99055118, 11.99055118;stroke-dashoffset:0"
       d="m 102.75591,524.40939 0,435.82677"
       id="path4132"
       inkscape:connector-curvature="0" />
    <path
       style="fill:none;stroke:#f80000;stroke-width:1;stroke-linecap:butt;stroke-linejoin:miter;stroke-miterlimit:4;stroke-opacity:1;stroke-dasharray:8, 8;stroke-dashoffset:0"
       d="m 173.62205,960.23616 0,-435.82677"
       id="path4134"
       inkscape:connector-curvature="0" />
    <path
       style="fill:none;stroke:#f80000;stroke-width:0.99921262;stroke-linecap:butt;stroke-linejoin:miter;stroke-miterlimit:4;stroke-opacity:1;stroke-dasharray:11.99055118, 11.99055118;stroke-dashoffset:0"
       d="m 439.37008,524.40939 0,403.93701"
       id="path4136"
       inkscape:connector-curvature="0" />
    <path
       style="fill:none;stroke:#f80000;stroke-width:1;stroke-linecap:butt;stroke-linejoin:miter;stroke-miterlimit:4;stroke-opacity:1;stroke-dasharray:12, 12;stroke-dashoffset:0"
       d="m 510.23622,928.3464 0,-403.93701"
       id="path4138"
       inkscape:connector-curvature="0" />
    <path
       style="fill:none;stroke:#f90000;stroke-width:0.99921262;stroke-linecap:butt;stroke-linejoin:miter;stroke-miterlimit:4;stroke-opacity:1;stroke-dasharray:11.99055118, 11.99055118;stroke-dashoffset:0"
       d="m 775.98425,524.40939 0,411.02362"
       id="path4140"
       inkscape:connector-curvature="0" />
    <path
       style="fill:none;stroke:#fd0000;stroke-width:0.99921262;stroke-linecap:butt;stroke-linejoin:miter;stroke-miterlimit:4;stroke-opacity:1;stroke-dasharray:11.99055118, 11.99055118;stroke-dashoffset:0"
       d="m 846.85039,938.97632 0,-414.56693"
       id="path4142"
       inkscape:connector-curvature="0" />
    <path
       style="fill:none;stroke:#f40000;stroke-width:1;stroke-linecap:butt;stroke-linejoin:miter;stroke-miterlimit:4;stroke-opacity:1;stroke-dasharray:12, 12;stroke-dashoffset:0"
       d="m 960.23622,545.66923 -953.1496058,0"
       id="path4144"
       inkscape:connector-curvature="0" />
    <path
       style="fill:none;stroke:#f60000;stroke-width:0.99921262;stroke-linecap:butt;stroke-linejoin:miter;stroke-miterlimit:4;stroke-opacity:1;stroke-dasharray:11.99055118, 11.99055118;stroke-dashoffset:0"
       d="m 960.23622,574.01569 -946.062992,0"
       id="path4146"
       inkscape:connector-curvature="0" />
    <path
       style="fill:none;stroke:#fc0000;stroke-width:1;stroke-linecap:butt;stroke-linejoin:miter;stroke-miterlimit:4;stroke-opacity:1;stroke-dasharray:12, 12;stroke-dashoffset:0"
       d="m 960.23622,634.25191 -942.519685,0"
       id="path4148"
       inkscape:connector-curvature="0" />
    <path
       style="fill:none;stroke:#f90000;stroke-width:0.99921262;stroke-linecap:butt;stroke-linejoin:miter;stroke-miterlimit:4;stroke-opacity:1;stroke-dasharray:11.99055118, 11.99055118;stroke-dashoffset:0"
       d="m 960.23622,662.59836 -942.519685,0"
       id="path4150"
       inkscape:connector-curvature="0" />
    <path
       style="fill:none;stroke:#fa0000;stroke-width:1;stroke-linecap:butt;stroke-linejoin:miter;stroke-miterlimit:4;stroke-opacity:1;stroke-dasharray:12, 12;stroke-dashoffset:0"
       d="m 269.29134,21.259782 0,938.976378"
       id="path4152"
       inkscape:connector-curvature="0"
       sodipodi:nodetypes="cc" />
    <path
       style="fill:none;stroke:#fd0000;stroke-width:0.99921262;stroke-linecap:butt;stroke-linejoin:miter;stroke-miterlimit:4;stroke-opacity:1;stroke-dasharray:11.99055118, 11.99055118;stroke-dashoffset:0"
       d="m 283.46457,21.259782 0,889.370078"
       id="path4154"
       inkscape:connector-curvature="0"
       sodipodi:nodetypes="cc" />
    <path
       style="fill:none;stroke:#fc0000;stroke-width:1;stroke-linecap:butt;stroke-linejoin:miter;stroke-miterlimit:4;stroke-opacity:1;stroke-dasharray:12, 12;stroke-dashoffset:0"
       d="m 666.14173,31.889703 0,857.480317"
       id="path4156"
       inkscape:connector-curvature="0"
       sodipodi:nodetypes="cc" />
    <path
       style="fill:none;stroke:#fc0000;stroke-width:0.99921262;stroke-linecap:butt;stroke-linejoin:miter;stroke-miterlimit:4;stroke-opacity:1;stroke-dasharray:11.99055118, 11.99055118;stroke-dashoffset:0"
       d="m 680.31496,882.2834 0,-850.393697"
       id="path4158"
       inkscape:connector-curvature="0"
       sodipodi:nodetypes="cc" />
    <path
       style="fill:none;stroke:#fd0000;stroke-width:0.99921262;stroke-linecap:butt;stroke-linejoin:miter;stroke-miterlimit:4;stroke-opacity:1;stroke-dasharray:11.99055118, 11.99055118;stroke-dashoffset:0"
       d="m 977.95276,14.173168 0,892.913382"
       id="path4160"
       inkscape:connector-curvature="0"
       sodipodi:nodetypes="cc" />
    <path
       style="fill:none;stroke:#fd0000;stroke-width:1;stroke-linecap:butt;stroke-linejoin:miter;stroke-miterlimit:4;stroke-opacity:1;stroke-dasharray:12, 12;stroke-dashoffset:0"
       d="m 1119.685,14.173168 0,889.370082"
       id="path4162"
       inkscape:connector-curvature="0" />
    <path
       style="fill:none;stroke:#f70000;stroke-width:0.99921262;stroke-linecap:butt;stroke-linejoin:miter;stroke-miterlimit:4;stroke-opacity:1;stroke-dasharray:11.99055118, 11.99055118;stroke-dashoffset:0"
       d="m 963.77953,14.173168 0,892.913382"
       id="path4164"
       inkscape:connector-curvature="0" />
    <path
       style="fill:none;stroke:#fc0000;stroke-width:1;stroke-linecap:butt;stroke-linejoin:miter;stroke-miterlimit:4;stroke-opacity:1;stroke-dasharray:12, 12;stroke-dashoffset:0"
       d="m 1133.8583,903.54325 0,-889.370082"
       id="path4166"
       inkscape:connector-curvature="0" />
    <path
       style="fill:none;stroke:#f80000;stroke-width:0.99921262;stroke-linecap:butt;stroke-linejoin:miter;stroke-miterlimit:4;stroke-opacity:1;stroke-dasharray:11.99055118, 11.99055118;stroke-dashoffset:0"
       d="m 1140.9449,42.519624 -1137.4015929,0"
       id="path4168"
       inkscape:connector-curvature="0"
       sodipodi:nodetypes="cc" />
  </g>
</svg>
