<?xml version="1.0" encoding="UTF-8" standalone="no"?>
<!-- Created with Inkscape (http://www.inkscape.org/) -->

<svg
   xmlns:dc="http://purl.org/dc/elements/1.1/"
   xmlns:cc="http://creativecommons.org/ns#"
   xmlns:rdf="http://www.w3.org/1999/02/22-rdf-syntax-ns#"
   xmlns:svg="http://www.w3.org/2000/svg"
   xmlns="http://www.w3.org/2000/svg"
   xmlns:sodipodi="http://sodipodi.sourceforge.net/DTD/sodipodi-0.dtd"
   xmlns:inkscape="http://www.inkscape.org/namespaces/inkscape"
   width="2125.9841"
   height="1062.9921"
   id="svg2"
   version="1.1"
   inkscape:version="0.48.5 r10040"
   sodipodi:docname="ipad-pyramid.svg">
  <defs
     id="defs4">
    <clipPath
       id="clipPath3058"
       clipPathUnits="userSpaceOnUse">
      <path
         id="path3060"
         d="M 0,0 612,0 612,792 0,792 0,0 z" />
    </clipPath>
    <clipPath
       id="clipPath3052"
       clipPathUnits="userSpaceOnUse">
      <path
         id="path3054"
         clip-rule="evenodd"
         d="m 26,792 560.0005,0 0,-792 L 26,0 26,792" />
    </clipPath>
    <clipPath
       id="clipPath3046"
       clipPathUnits="userSpaceOnUse">
      <path
         id="path3048"
         d="M 26,792 26,0 586,0 586,792 26,792 z" />
    </clipPath>
    <clipPath
       id="clipPath3036"
       clipPathUnits="userSpaceOnUse">
      <path
         id="path3038"
         d="M 0,0 612,0 612,792 0,792 0,0 z" />
    </clipPath>
    <clipPath
       id="clipPath3030"
       clipPathUnits="userSpaceOnUse">
      <path
         id="path3032"
         clip-rule="evenodd"
         d="m 26,792 560.0005,0 0,-792 L 26,0 26,792" />
    </clipPath>
    <clipPath
       id="clipPath3024"
       clipPathUnits="userSpaceOnUse">
      <path
         id="path3026"
         d="M 26,792 26,0 586,0 586,792 26,792 z" />
    </clipPath>
  </defs>
  <sodipodi:namedview
     id="base"
     pagecolor="#ffffff"
     bordercolor="#666666"
     borderopacity="1.0"
     inkscape:pageopacity="0.0"
     inkscape:pageshadow="2"
     inkscape:zoom="0.3169698"
     inkscape:cx="1395.1935"
     inkscape:cy="483.91694"
     inkscape:document-units="mm"
     inkscape:current-layer="layer1"
     showgrid="false"
     units="mm"
     inkscape:window-width="1440"
     inkscape:window-height="790"
     inkscape:window-x="0"
     inkscape:window-y="0"
     inkscape:window-maximized="1" />
  <metadata
     id="metadata7">
    <rdf:RDF>
      <cc:Work
         rdf:about="">
        <dc:format>image/svg+xml</dc:format>
        <dc:type
           rdf:resource="http://purl.org/dc/dcmitype/StillImage" />
        <dc:title></dc:title>
      </cc:Work>
    </rdf:RDF>
  </metadata>
  <g
     inkscape:label="Layer 1"
     inkscape:groupmode="layer"
     id="layer1"
     transform="translate(0,10.629915)">
    <g
       id="g3018"
       transform="matrix(1.321404,0,0,-1.3232259,784.73768,870.22894)" />
    <path
       style="fill:none;stroke:#ff0000;stroke-width:1.77165354;stroke-miterlimit:4;stroke-opacity:1;stroke-dasharray:none"
       d="m 173.02412,206.69163 0,-37.7778 13.03065,0.003 0.001,-14.37035 319.85937,0 -1.7e-4,14.36614 13.01145,0.001 0,37.7778 -13.01144,-0.001 1.6e-4,14.36863 -319.85937,0 -0.007,-14.36544 z"
       id="rect4015"
       inkscape:connector-curvature="0"
       sodipodi:nodetypes="ccccccccccccc" />
    <g
       style="stroke-width:1.4242121;stroke-miterlimit:4;stroke-dasharray:none"
       transform="matrix(0,1.2448107,1.2430968,0,713.26798,-80.802399)"
       id="g3967">
      <path
         id="path3969"
         style="fill:none;stroke:#000000;stroke-width:1.4242121;stroke-linecap:butt;stroke-linejoin:miter;stroke-miterlimit:4;stroke-opacity:1;stroke-dasharray:none"
         d="m 104.008,35.521 633.875,0 c 12.772,0 23.138,10.366 23.138,23.138 l 0,477.959 c 0,12.772 -10.366,23.138 -23.138,23.138 l -633.875,0 c -12.772,0 -23.138,-10.366 -23.138,-23.138 l 0,-477.959 c 0,-12.772 10.366,-23.138 23.138,-23.138 z"
         inkscape:connector-curvature="0" />
    </g>
    <rect
       y="522.46057"
       x="578.81"
       height="37.777794"
       width="12.974644"
       id="rect4005"
       style="fill:none;stroke:#ff0000;stroke-width:1.19858527;stroke-miterlimit:4;stroke-opacity:1;stroke-dasharray:none"
       transform="matrix(0.78480357,-0.61974459,0.61974459,0.78480357,0,0)" />
    <rect
       style="fill:none;stroke:#ff0000;stroke-width:1.19858527;stroke-miterlimit:4;stroke-opacity:1;stroke-dasharray:none"
       id="rect4021"
       width="12.974644"
       height="37.777794"
       x="-1121.8572"
       y="-820.52423"
       transform="matrix(-0.78480357,-0.61974459,-0.61974459,0.78480357,0,0)" />
    <rect
       style="fill:none;stroke:#ff0000;stroke-width:1.19858527;stroke-miterlimit:4;stroke-opacity:1;stroke-dasharray:none"
       id="rect4027"
       width="12.974644"
       height="37.777794"
       x="1127.9114"
       y="-173.52005"
       transform="matrix(0.78480357,0.61974459,0.61974459,-0.78480357,0,0)" />
    <rect
       y="-1516.5049"
       x="-572.75574"
       height="37.777794"
       width="12.974644"
       id="rect4033"
       style="fill:none;stroke:#ff0000;stroke-width:1.19858527;stroke-miterlimit:4;stroke-opacity:1;stroke-dasharray:none"
       transform="matrix(-0.78480357,0.61974459,-0.61974459,-0.78480357,0,0)" />
    <g
       id="g4100">
      <g
         style="stroke-width:1.4242121;stroke-miterlimit:4;stroke-dasharray:none"
         transform="matrix(0,1.2448107,1.2430968,0,-13.98367,-83.033232)"
         id="g4058">
        <path
           id="path4060"
           style="fill:none;stroke:#000000;stroke-width:1.4242121;stroke-linecap:butt;stroke-linejoin:miter;stroke-miterlimit:4;stroke-opacity:1;stroke-dasharray:none"
           d="m 104.008,35.521 633.875,0 c 12.772,0 23.138,10.366 23.138,23.138 l 0,477.959 c 0,12.772 -10.366,23.138 -23.138,23.138 l -633.875,0 c -12.772,0 -23.138,-10.366 -23.138,-23.138 l 0,-477.959 c 0,-12.772 10.366,-23.138 23.138,-23.138 z"
           inkscape:connector-curvature="0" />
      </g>
      <g
         transform="matrix(0,1.2448107,1.2430968,0,-13.98367,-83.033232)"
         id="g4062">
        <path
           id="path4064"
           style="fill:none;stroke:#000000;stroke-width:1.12600005;stroke-linecap:butt;stroke-linejoin:miter;stroke-miterlimit:10;stroke-opacity:1;stroke-dasharray:none"
           d="m 141.495,88.541 558.741,0 0,418.943 -558.741,0 0,-418.943 z"
           inkscape:connector-curvature="0" />
      </g>
      <rect
         y="69.999527"
         x="9.442853"
         height="37.777794"
         width="12.974644"
         id="rect4066"
         style="fill:none;stroke:#ff0000;stroke-width:1.19858527;stroke-miterlimit:4;stroke-opacity:1;stroke-dasharray:none"
         transform="matrix(0.78480357,-0.61974459,0.61974459,0.78480357,0,0)" />
      <rect
         style="fill:none;stroke:#ff0000;stroke-width:1.19858527;stroke-miterlimit:4;stroke-opacity:1;stroke-dasharray:none"
         id="rect4068"
         width="12.974644"
         height="37.777794"
         x="-549.72491"
         y="-371.56473"
         transform="matrix(-0.78480357,-0.61974459,-0.61974459,0.78480357,0,0)" />
      <rect
         style="fill:none;stroke:#ff0000;stroke-width:1.19858527;stroke-miterlimit:4;stroke-opacity:1;stroke-dasharray:none"
         id="rect4070"
         width="12.974644"
         height="37.777794"
         x="555.77911"
         y="-622.47955"
         transform="matrix(0.78480357,0.61974459,0.61974459,-0.78480357,0,0)" />
      <rect
         y="-1064.0438"
         x="-3.3885932"
         height="37.777794"
         width="12.974644"
         id="rect4072"
         style="fill:none;stroke:#ff0000;stroke-width:1.19858527;stroke-miterlimit:4;stroke-opacity:1;stroke-dasharray:none"
         transform="matrix(-0.78480357,0.61974459,-0.61974459,-0.78480357,0,0)" />
    </g>
    <path
       sodipodi:nodetypes="ccccccccccccc"
       inkscape:connector-curvature="0"
       id="path4117"
       d="m 173.02412,284.69163 0,-37.7778 13.03065,0.003 0.001,-14.37035 319.85937,0 -1.7e-4,14.36614 13.01145,0.001 0,37.7778 -13.01144,-10e-4 1.6e-4,14.36863 -319.85937,0 -0.007,-14.36544 z"
       style="fill:none;stroke:#ff0000;stroke-width:1.77165353;stroke-miterlimit:4;stroke-opacity:1;stroke-dasharray:none" />
    <path
       style="fill:none;stroke:#ff0000;stroke-width:1.77165353;stroke-miterlimit:4;stroke-opacity:1;stroke-dasharray:none"
       d="m 173.02412,364.69163 0,-37.7778 13.03065,0.003 0.001,-14.37035 319.85937,0 -1.7e-4,14.36614 13.01145,10e-4 0,37.7778 -13.01144,-10e-4 1.6e-4,14.36863 -319.85937,0 -0.007,-14.36544 z"
       id="path4119"
       inkscape:connector-curvature="0"
       sodipodi:nodetypes="ccccccccccccc" />
    <path
       sodipodi:nodetypes="ccccccccccccc"
       inkscape:connector-curvature="0"
       id="path4121"
       d="m 173.02412,444.69163 0,-37.7778 13.03065,0.003 0.001,-14.37035 319.85937,0 -1.7e-4,14.36614 13.01145,10e-4 0,37.7778 -13.01144,-10e-4 1.6e-4,14.36863 -319.85937,0 -0.007,-14.36544 z"
       style="fill:none;stroke:#ff0000;stroke-width:1.77165353;stroke-miterlimit:4;stroke-opacity:1;stroke-dasharray:none" />
    <path
       style="fill:none;stroke:#000000;stroke-width:1px;stroke-linecap:butt;stroke-linejoin:miter;stroke-opacity:1"
       d="m 1788.2945,399.46851 325.6672,458.273 -649.4976,-0.0349 z"
       id="path4146"
       inkscape:connector-curvature="0"
       sodipodi:nodetypes="cccc" />
  </g>
</svg>
