<?xml version="1.0" encoding="UTF-8" standalone="no"?>
<!-- Created with Inkscape (http://www.inkscape.org/) -->

<svg
   xmlns:dc="http://purl.org/dc/elements/1.1/"
   xmlns:cc="http://creativecommons.org/ns#"
   xmlns:rdf="http://www.w3.org/1999/02/22-rdf-syntax-ns#"
   xmlns:svg="http://www.w3.org/2000/svg"
   xmlns="http://www.w3.org/2000/svg"
   xmlns:sodipodi="http://sodipodi.sourceforge.net/DTD/sodipodi-0.dtd"
   xmlns:inkscape="http://www.inkscape.org/namespaces/inkscape"
   width="2125.9841"
   height="1062.9921"
   id="svg2"
   version="1.1"
   inkscape:version="0.48.5 r10040"
   sodipodi:docname="drawing.svg">
  <defs
     id="defs4" />
  <sodipodi:namedview
     id="base"
     pagecolor="#ffffff"
     bordercolor="#666666"
     borderopacity="1.0"
     inkscape:pageopacity="0.0"
     inkscape:pageshadow="2"
     inkscape:zoom="2"
     inkscape:cx="395.89699"
     inkscape:cy="937.44976"
     inkscape:document-units="mm"
     inkscape:current-layer="layer1"
     showgrid="true"
     units="mm"
     inkscape:window-width="1376"
     inkscape:window-height="778"
     inkscape:window-x="0"
     inkscape:window-y="0"
     inkscape:window-maximized="0"
     inkscape:snap-grids="false">
    <inkscape:grid
       type="xygrid"
       id="grid2985"
       empspacing="5"
       visible="true"
       enabled="true"
       snapvisiblegridlinesonly="true"
       units="mm"
       spacingx="1mm"
       spacingy="1mm" />
  </sodipodi:namedview>
  <metadata
     id="metadata7">
    <rdf:RDF>
      <cc:Work
         rdf:about="">
        <dc:format>image/svg+xml</dc:format>
        <dc:type
           rdf:resource="http://purl.org/dc/dcmitype/StillImage" />
        <dc:title></dc:title>
      </cc:Work>
    </rdf:RDF>
  </metadata>
  <g
     inkscape:label="Layer 1"
     inkscape:groupmode="layer"
     id="layer1"
     transform="translate(0,10.629915)">
    <g
       id="g3039"
       transform="translate(-221.69467,-160.51324)">
      <path
         sodipodi:nodetypes="csccscc"
         inkscape:connector-curvature="0"
         id="path3008"
         d="m 325.85353,287.05903 c -23.32912,-0.0731 -42.30038,-19.04436 -42.30038,-42.44659 0,-23.40222 18.97126,-42.37348 42.30038,-42.44658 l 113.31273,0 c 23.40223,0.0731 42.3735,19.04436 42.3735,42.44658 0,23.40223 -18.97127,42.37349 -42.3735,42.44659 z"
         style="fill:none;stroke:#ff0000;stroke-width:0.17716534;stroke-miterlimit:79.84031677;stroke-opacity:1" />
      <path
         transform="matrix(0.74534162,0,0,0.74534162,85.589569,54.462339)"
         d="m 336.61418,255.11806 c 0,7.82766 -6.34557,14.17323 -14.17323,14.17323 -7.82766,0 -14.17323,-6.34557 -14.17323,-14.17323 0,-7.82766 6.34557,-14.17323 14.17323,-14.17323 7.82766,0 14.17323,6.34557 14.17323,14.17323 z"
         sodipodi:ry="14.173228"
         sodipodi:rx="14.173228"
         sodipodi:cy="255.11806"
         sodipodi:cx="322.44095"
         id="path3015"
         style="fill:none;stroke:#ff0000;stroke-width:0.17716534;stroke-miterlimit:79.84031677;stroke-opacity:1;stroke-dasharray:none"
         sodipodi:type="arc" />
      <path
         sodipodi:type="arc"
         style="fill:none;stroke:#ff0000;stroke-width:0.17716534;stroke-miterlimit:79.84031677;stroke-opacity:1;stroke-dasharray:none"
         id="path3021"
         sodipodi:cx="322.44095"
         sodipodi:cy="255.11806"
         sodipodi:rx="14.173228"
         sodipodi:ry="14.173228"
         d="m 336.61418,255.11806 c 0,7.82766 -6.34557,14.17323 -14.17323,14.17323 -7.82766,0 -14.17323,-6.34557 -14.17323,-14.17323 0,-7.82766 6.34557,-14.17323 14.17323,-14.17323 7.82766,0 14.17323,6.34557 14.17323,14.17323 z"
         transform="matrix(0.74534162,0,0,0.74534162,199.10744,54.462339)" />
    </g>
    <path
       id="path3829"
       d="m 221.38767,236.35643 0.003,-10.08182 c 0,0 -14.71705,-13.1664 -18.47137,-16.61806 -3.94666,-3.86035 -6.57337,-9.38938 -6.57337,-15.5319 0,-11.64444 9.43968,-21.08412 21.08414,-21.08412 5.23242,0 10.01967,1.906 13.58693,4.94131 l 18.47853,16.49095 10.62992,0 c -0.0443,-23.57629 -19.05984,-42.72162 -42.38896,-42.79472 -37.92314,0 -75.84628,0 -113.76942,0 -23.329118,0.0731 -42.344668,19.21843 -42.388958,42.79472 l 10.62992,0 18.47853,-16.49095 c 3.56726,-3.03531 8.35451,-4.94131 13.586928,-4.94131 11.64446,0 21.08414,9.43968 21.08414,21.08412 0,6.14252 -2.62671,11.67155 -6.57337,15.5319 -3.75432,3.45166 -18.47137,16.61806 -18.47137,16.61806 l 0.003,10.08182 c 40.35733,0.16299 80.71443,0.0742 121.07178,0 z"
       style="fill:none;stroke:#ff0000;stroke-width:0.17716534;stroke-miterlimit:79.84031677;stroke-opacity:1;stroke-dasharray:none"
       inkscape:connector-curvature="0"
       sodipodi:nodetypes="cccssccccccccsscccc" />
    <path
       id="path3858"
       d="m 185.871,346.33989 -0.1204,-42.01801 c -0.0454,-17.49313 14.10112,-31.6397 31.55179,-31.6397 7.07448,0 13.60594,2.32496 18.872,6.25254 l 23.97398,20.46556 c -2.63486,-21.25549 -20.54006,-37.67996 -42.14467,-37.74766 -39.25439,0 -77.82056,0 -114.30385,0 -21.604608,0.0677 -39.509808,16.49217 -42.144668,37.74766 l 23.97398,-20.46556 c 5.26606,-3.92758 11.79752,-6.25254 18.871998,-6.25254 17.45067,0 31.59721,14.14657 31.55179,31.6397 l -0.1204,42.01801 c 17.03425,0.10519 35.22685,0.0561 50.03845,0 z"
       style="fill:none;stroke:#ff0000;stroke-width:0.17716534;stroke-miterlimit:79.84031677;stroke-opacity:1;stroke-dasharray:none"
       inkscape:connector-curvature="0"
       sodipodi:nodetypes="ccsccccccsccc" />
    <text
       xml:space="preserve"
       style="font-size:20px;font-style:normal;font-weight:normal;line-height:125%;letter-spacing:0px;word-spacing:0px;fill:#00ff00;fill-opacity:1;stroke:none;font-family:Sans"
       x="135.08031"
       y="91.369713"
       id="text3860"
       sodipodi:linespacing="125%"><tspan
         sodipodi:role="line"
         id="tspan3862"
         x="135.08031"
         y="91.369713">3mm</tspan></text>
    <text
       xml:space="preserve"
       style="font-size:20px;font-style:normal;font-weight:normal;line-height:125%;letter-spacing:0px;word-spacing:0px;fill:#00ff00;fill-opacity:1;stroke:none;font-family:Sans"
       x="135.08029"
       y="201.33369"
       id="text3864"
       sodipodi:linespacing="125%"><tspan
         sodipodi:role="line"
         id="tspan3866"
         x="135.08029"
         y="201.33369">3mm</tspan></text>
    <text
       xml:space="preserve"
       style="font-size:20px;font-style:normal;font-weight:normal;line-height:125%;letter-spacing:0px;word-spacing:0px;fill:#00ff00;fill-opacity:1;stroke:none;font-family:Sans"
       x="134.98264"
       y="311.1463"
       id="text3868"
       sodipodi:linespacing="125%"><tspan
         sodipodi:role="line"
         id="tspan3870"
         x="134.98264"
         y="311.1463">5mm</tspan></text>
    <g
       transform="translate(26.30533,-160.51324)"
       id="g3872">
      <path
         style="fill:none;stroke:#ff0000;stroke-width:0.17716534;stroke-miterlimit:79.84031677;stroke-opacity:1"
         d="m 325.85353,287.05903 c -23.32912,-0.0731 -42.32836,-19.04438 -42.30038,-42.44659 l 0.0507,-42.44658 197.98876,0 -0.0529,42.44658 c -0.0292,23.40222 -18.97127,42.37349 -42.3735,42.44659 z"
         id="path3874"
         inkscape:connector-curvature="0"
         sodipodi:nodetypes="csccscc" />
      <path
         sodipodi:type="arc"
         style="fill:none;stroke:#ff0000;stroke-width:0.17716534;stroke-miterlimit:79.84031677;stroke-opacity:1;stroke-dasharray:none"
         id="path3876"
         sodipodi:cx="322.44095"
         sodipodi:cy="255.11806"
         sodipodi:rx="14.173228"
         sodipodi:ry="14.173228"
         d="m 336.61418,255.11806 c 0,7.82766 -6.34557,14.17323 -14.17323,14.17323 -7.82766,0 -14.17323,-6.34557 -14.17323,-14.17323 0,-7.82766 6.34557,-14.17323 14.17323,-14.17323 7.82766,0 14.17323,6.34557 14.17323,14.17323 z"
         transform="matrix(0.74534162,0,0,0.74534162,85.589569,54.462339)" />
      <path
         transform="matrix(0.74534162,0,0,0.74534162,199.10744,54.462339)"
         d="m 336.61418,255.11806 c 0,7.82766 -6.34557,14.17323 -14.17323,14.17323 -7.82766,0 -14.17323,-6.34557 -14.17323,-14.17323 0,-7.82766 6.34557,-14.17323 14.17323,-14.17323 7.82766,0 14.17323,6.34557 14.17323,14.17323 z"
         sodipodi:ry="14.173228"
         sodipodi:rx="14.173228"
         sodipodi:cy="255.11806"
         sodipodi:cx="322.44095"
         id="path3878"
         style="fill:none;stroke:#ff0000;stroke-width:0.17716534;stroke-miterlimit:79.84031677;stroke-opacity:1;stroke-dasharray:none"
         sodipodi:type="arc" />
    </g>
    <path
       sodipodi:nodetypes="cccssccccccccsscccc"
       inkscape:connector-curvature="0"
       style="fill:none;stroke:#ff0000;stroke-width:0.17716534;stroke-miterlimit:79.84031677;stroke-opacity:1;stroke-dasharray:none"
       d="m 469.38767,236.35643 0.003,-10.08182 c 0,0 -14.71705,-13.1664 -18.47137,-16.61806 -3.94666,-3.86035 -6.57337,-9.38938 -6.57337,-15.5319 0,-11.64444 9.43968,-21.08412 21.08414,-21.08412 5.23242,0 10.01967,1.906 13.58693,4.94131 l 18.47853,16.49095 10.62992,0 -0.13933,-42.79472 c -37.92314,0 -160.34554,0 -198.26868,0 l -0.13933,42.79472 10.62992,0 18.47853,-16.49095 c 3.56726,-3.03531 8.35451,-4.94131 13.58693,-4.94131 11.64446,0 21.08414,9.43968 21.08414,21.08412 0,6.14252 -2.62671,11.67155 -6.57337,15.5319 -3.75432,3.45166 -18.47137,16.61806 -18.47137,16.61806 l 0.003,10.08182 c 40.35733,0.16299 80.71443,0.0742 121.07178,0 z"
       id="path3880" />
    <path
       sodipodi:nodetypes="ccsccccccsccc"
       inkscape:connector-curvature="0"
       style="fill:none;stroke:#ff0000;stroke-width:0.17716534;stroke-miterlimit:79.84031677;stroke-opacity:1;stroke-dasharray:none"
       d="m 433.871,346.33989 -0.1204,-42.01801 c -0.0454,-17.49313 14.10112,-31.6397 31.55179,-31.6397 7.07448,0 13.60594,2.32496 18.872,6.25254 l 23.97398,20.46556 -0.0718,-37.74766 c -39.25439,0 -162.14304,0 -198.62633,0 l 0.10496,37.74766 23.97398,-20.46556 c 5.26606,-3.92758 11.79752,-6.25254 18.872,-6.25254 17.45067,0 31.59721,14.14657 31.55179,31.6397 l -0.1204,42.01801 c 17.03425,0.10519 35.22685,0.0561 50.03845,0 z"
       id="path3882" />
    <text
       sodipodi:linespacing="125%"
       id="text3884"
       y="91.369713"
       x="383.08032"
       style="font-size:20px;font-style:normal;font-weight:normal;line-height:125%;letter-spacing:0px;word-spacing:0px;fill:#00ff00;fill-opacity:1;stroke:none;font-family:Sans"
       xml:space="preserve"><tspan
         y="91.369713"
         x="383.08032"
         id="tspan3886"
         sodipodi:role="line">3mm</tspan></text>
    <text
       sodipodi:linespacing="125%"
       id="text3888"
       y="201.33369"
       x="383.08029"
       style="font-size:20px;font-style:normal;font-weight:normal;line-height:125%;letter-spacing:0px;word-spacing:0px;fill:#00ff00;fill-opacity:1;stroke:none;font-family:Sans"
       xml:space="preserve"><tspan
         y="201.33369"
         x="383.08029"
         id="tspan3890"
         sodipodi:role="line">3mm</tspan></text>
    <text
       sodipodi:linespacing="125%"
       id="text3892"
       y="311.1463"
       x="382.98264"
       style="font-size:20px;font-style:normal;font-weight:normal;line-height:125%;letter-spacing:0px;word-spacing:0px;fill:#00ff00;fill-opacity:1;stroke:none;font-family:Sans"
       xml:space="preserve"><tspan
         y="311.1463"
         x="382.98264"
         id="tspan3894"
         sodipodi:role="line">5mm</tspan></text>
  </g>
</svg>
